<svg xmlns="http://www.w3.org/2000/svg" viewBox="0 0 545.5 175.9" xmlns:v="https://vecta.io/nano"><path d="M58.6 16l10.2 51.1 2.3 2.2-45.6 101.3L119 67.5z" fill="#9c00fd"/><path d="M63.5 22.7L62.2 0H40.9 0l71.1 69.3z" fill="#970aff"/><path d="M119 21.4L96.8 45.3l24 15.1z" fill="#9c00ff"/><path d="M139.8 1.2L138.6 0 135 35.5h2.6l34.7-1.7z" fill="#8d0eff"/><path d="M135 65.7l.4-6.9-.5 7z" fill="#be08a8"/><path d="M138.6 0l-16.9 18.5-2.7 2.9v35.4l-16.9-16.9L62.2 0h-.9-.5l2.7 22.7 48.4 48.4-86.4 99.5-2.4 5.3L131 69.7l3.9-3.9.5-7 1.7-23.3L139.5.9z" fill="#8200ed"/><path d="M189.1 124.7v-22.1h7.1c7.5-13.6 9.4-32.8 9.4-50.1h37.9v50.1h7.5v22.1h-8.7v-13.4h-44.4v13.4h-8.8zm17.5-22.1h27.3V61.3H215c-.9 14.6-2.8 30.6-8.4 41.3zm94.6-50.1v8.7h-30.9v16h28.4V86h-28.4v16.5h31.4v8.7h-41V52.5h40.5zm11.5 58.8V52.5h9.6V77h11.6l16.4-24.5h10.8l-19.5 28.6 21 30.2h-10.8L334 85.9h-11.8v25.5h-9.5zm81.4-59.9c20.7 0 30.9 15 30.9 30.5s-10.2 30.5-30.9 30.5-30.9-15-30.9-30.5 10.2-30.5 30.9-30.5zm0 9c-14.2 0-21.2 10.2-21.2 21.5s7 21.5 21.2 21.5c14.3 0 21.2-10.2 21.2-21.5s-6.9-21.5-21.2-21.5zm82 50.9V74.7l.1-6.4-31.7 43h-9V52.5h9.6V89l-.1 6.5 31.7-43h9v58.8h-9.6zm51.4-59.9c5.9 0 11.7 1.3 16.7 3.9v9.3c-4.1-2.9-9.6-4.4-15.1-4.4-11.3 0-22.9 6.6-23 22.2 0 14.4 11.9 21.2 23.2 21.2 6 0 11.5-1.6 15.4-4.5v9.5a39.46 39.46 0 0 1-17.1 3.9c-15.2 0-31.3-9.9-31.2-30-.1-21 15.6-31.1 31.1-31.1z" fill="#8d0eff"/><path d="M190 172.6v-7.9h2.5c2.7-4.9 3.4-11.7 3.4-17.9h13.5v17.9h2.7v7.9H209v-4.8h-15.8v4.8H190zm6.2-7.9h9.8V150h-6.8c-.3 5.2-1 10.9-3 14.7zm34.7-17.9v3.1h-11v5.7H230v3.1h-10.1v5.9h11.2v3.1h-14.6v-21h14.4zm22.4 0v21h-3.4V150h-7c-.8 9.3-1.7 18.1-7.3 18.1-.6 0-1.3-.1-2.1-.4v-3.2c.4.2.8.2 1.4.2 3.7-.1 4.1-9.6 4.7-18h13.7zm3.6 21l8.9-21h3.8l8.8 21h-3.6l-1.9-4.5h-10.5l-1.9 4.5h-3.6zm6.7-7.5h8.2l-3.7-9-.4-1.2c-.2.5-.3.8-.4 1.2l-3.7 9zm32.9-13.5v3.1h-11v5.7h10.1v3.1h-10.1v5.9h11.2v3.1h-14.6v-21h14.4zm27.2 0v21h-3.4v-14.7l-6.6 10h-2l-6.6-10v14.7h-3.4v-21h3.1l8 12 8-12h2.9zm23.8-.4c2.1 0 4.2.5 6 1.4v3.3c-1.5-1-3.4-1.6-5.4-1.6-4 0-8.2 2.4-8.2 7.9 0 5.2 4.3 7.6 8.3 7.6 2.2 0 4.1-.6 5.5-1.6v3.4c-1.8.9-3.9 1.4-6.1 1.4-5.4 0-11.2-3.5-11.2-10.7 0-7.5 5.6-11.1 11.1-11.1zm16.9 26.2v-7.9h2.5c2.7-4.9 3.4-11.7 3.4-17.9h13.5v17.9h2.7v7.9h-3.1v-4.8h-15.8v4.8h-3.2zm6.2-7.9h9.8V150h-6.8c-.3 5.2-1 10.9-3 14.7zm22.8 3.5c-1 0-2-.2-3-.5v-3c.7.2 1.6.4 2.4.4 1.7 0 2.9-.7 3.7-2.3l.4-.8-8.5-15.1h3.8l6.4 12 5.4-12h3.7l-7.6 16.2c-1.8 3.9-4.2 5.1-6.7 5.1zm17.8-.4v-21h3.4v17.8h8.2v-17.8h3.4v17.8h8.2v-17.8h3.4v21h-26.6zm42.3-21.4c7.4 0 11 5.3 11 10.9 0 5.5-3.7 10.9-11 10.9-7.4 0-11-5.3-11-10.9 0-5.5 3.6-10.9 11-10.9zm0 3.2c-5.1 0-7.6 3.7-7.6 7.7s2.5 7.7 7.6 7.7 7.6-3.7 7.6-7.7-2.5-7.7-7.6-7.7zm30.2 18.2v-13.1-2.3l-11.3 15.4h-3.2v-21h3.4v13 2.3l11.3-15.4h3.2v21h-3.4zm-1.2-24.1V141c-1.5 1-2.9 1.3-4.4 1.3-1.6 0-2.9-.3-4.4-1.3v2.8c1.3.9 2.8 1.3 4.4 1.3 1.7-.1 3.1-.4 4.4-1.4z"/></svg>